HIERARCHY
ROOT Hips
{
	OFFSET 0.000000 0.000000 0.000000
	CHANNELS 6 Xposition Yposition Zposition Zrotation Yrotation Xrotation 
	JOINT LHipJoint
	{
		OFFSET 0.000000 0.000000 0.000000
		CHANNELS 3 Zrotation Yrotation Xrotation
		JOINT LeftUpLeg
		{
			OFFSET 1.363060 -1.794630 0.839290
			CHANNELS 3 Zrotation Yrotation Xrotation
			JOINT LeftLeg
			{
				OFFSET 2.448110 -6.726130 0.000000
				CHANNELS 3 Zrotation Yrotation Xrotation
				JOINT LeftFoot
				{
					OFFSET 2.562200 -7.039590 0.000000
					CHANNELS 3 Zrotation Yrotation Xrotation
					JOINT LeftToeBase
					{
						OFFSET 0.157640 -0.433110 2.322550
						CHANNELS 3 Zrotation Yrotation Xrotation
						End Site
						{
							OFFSET 0.000000 0.000000 0.000000
						}
					}
				}
			}
		}
	}
	JOINT RHipJoint
	{
		OFFSET 0.000000 0.000000 0.000000
		CHANNELS 3 Zrotation Yrotation Xrotation
		JOINT RightUpLeg
		{
			OFFSET -1.305520 -1.794630 0.839290
			CHANNELS 3 Zrotation Yrotation Xrotation
			JOINT RightLeg
			{
				OFFSET -2.542530 -6.985550 0.000000
				CHANNELS 3 Zrotation Yrotation Xrotation
				JOINT RightFoot
				{
					OFFSET -2.568260 -7.056230 0.000000
					CHANNELS 3 Zrotation Yrotation Xrotation
					JOINT RightToeBase
					{
						OFFSET -0.164730 -0.452590 2.363150
						CHANNELS 3 Zrotation Yrotation Xrotation
						End Site
						{
							OFFSET 0.000000 0.000000 0.000000
						}
					}
				}
			}
		}
	}
	JOINT LowerBack
	{
		OFFSET 0.000000 0.000000 0.000000
		CHANNELS 3 Zrotation Yrotation Xrotation
		JOINT Spine
		{
			OFFSET 0.028270 2.035590 -0.193380
			CHANNELS 3 Zrotation Yrotation Xrotation
			JOINT Spine1
			{
				OFFSET 0.056720 2.048850 -0.042750
				CHANNELS 3 Zrotation Yrotation Xrotation
				JOINT Neck
				{
					OFFSET 0.000000 0.000000 0.000000
					CHANNELS 3 Zrotation Yrotation Xrotation
					JOINT Neck1
					{
						OFFSET -0.054170 1.746240 0.172020
						CHANNELS 3 Zrotation Yrotation Xrotation
						JOINT Head
						{
							OFFSET 0.104070 1.761360 -0.123970
							CHANNELS 3 Zrotation Yrotation Xrotation
							End Site
							{
								OFFSET 0.000000 0.000000 0.000000
							}
						}
					}
				}
				JOINT LeftShoulder
				{
					OFFSET 0.000000 0.000000 0.000000
					CHANNELS 3 Zrotation Yrotation Xrotation
					JOINT LeftArm
					{
						OFFSET 3.362410 1.200890 -0.311210
						CHANNELS 3 Zrotation Yrotation Xrotation
						JOINT LeftForeArm
						{
							OFFSET 4.983000 -0.000000 -0.000000
							CHANNELS 3 Zrotation Yrotation Xrotation
							JOINT LeftHand
							{
								OFFSET 3.483560 -0.000000 -0.000000
								CHANNELS 3 Zrotation Yrotation Xrotation
								JOINT LeftFingerBase
								{
									OFFSET 0.000000 0.000000 0.000000
									CHANNELS 3 Zrotation Yrotation Xrotation
									JOINT LeftHandIndex1
									{
										OFFSET 0.715260 -0.000000 -0.000000
										CHANNELS 3 Zrotation Yrotation Xrotation
										End Site
										{
											OFFSET 0.000000 0.000000 0.000000
										}
									}
								}
								JOINT LThumb
								{
									OFFSET 0.000000 0.000000 0.000000
									CHANNELS 3 Zrotation Yrotation Xrotation
									End Site
									{
										OFFSET 0.000000 0.000000 0.000000
									}
								}
							}
						}
					}
				}
				JOINT RightShoulder
				{
					OFFSET 0.000000 0.000000 0.000000
					CHANNELS 3 Zrotation Yrotation Xrotation
					JOINT RightArm
					{
						OFFSET -3.136600 1.374050 -0.404650
						CHANNELS 3 Zrotation Yrotation Xrotation
						JOINT RightForeArm
						{
							OFFSET -5.241900 -0.000000 -0.000000
							CHANNELS 3 Zrotation Yrotation Xrotation
							JOINT RightHand
							{
								OFFSET -3.444170 -0.000000 -0.000000
								CHANNELS 3 Zrotation Yrotation Xrotation
								JOINT RightFingerBase
								{
									OFFSET 0.000000 0.000000 0.000000
									CHANNELS 3 Zrotation Yrotation Xrotation
									JOINT RightHandIndex1
									{
										OFFSET -0.622530 -0.000000 -0.000000
										CHANNELS 3 Zrotation Yrotation Xrotation
										End Site
										{
											OFFSET 0.000000 0.000000 0.000000
										}
									}
								}
								JOINT RThumb
								{
									OFFSET 0.000000 0.000000 0.000000
									CHANNELS 3 Zrotation Yrotation Xrotation
									End Site
									{
										OFFSET 0.000000 0.000000 0.000000
									}
								}
							}
						}
					}
				}
			}
		}
	}
}
MOTION
Frames: 10
Frame Time: 0.008333
16.829391 18.370061 21.024751 179.254251 -1.999087 -151.404770 22.425537 5.380220 -0.651703 -44.092836 -23.640460 -16.802828 2.744307 5.095733 12.577082 -2.157561 -15.023162 -31.022517 0.431300 -4.214300 -11.680400 -26.771612 -7.067844 -0.660154 50.896194 21.244392 -14.474342 -2.544514 -3.978630 9.622744 -1.791162 8.292751 -37.099362 -0.817200 5.768300 -16.113600 -4.108509 -1.106439 -27.474557 3.354902 -1.457330 -8.370410 -0.685875 -2.031217 18.176528 -9.654325 -1.557402 -4.058325 12.245434 -4.017507 15.300842 1.221600 -1.104300 3.790300 16.805880 -2.688174 0.965256 -108.207313 -3.983860 18.476810 16.142443 -16.480309 -2.236306 -0.519446 0.314347 3.130215 20.828297 -11.533958 -4.574100 -7.125000 0.000000 0.000000 -4.057700 17.353400 2.669500 -11.346784 1.278273 0.824767 101.843147 -3.571808 7.905520 -20.523777 30.338445 -5.089909 0.037810 -0.244448 -3.880467 -10.038396 -54.754955 8.218800 7.125000 0.000000 0.000000 73.220400 -75.366400 -58.256000 
16.828062 18.371595 21.024239 179.238442 -2.016780 -151.402001 22.416171 5.387372 -0.652645 -44.111908 -23.598849 -16.886687 2.744874 5.137723 12.701672 -2.188505 -15.107012 -31.053639 0.497300 -4.520900 -12.547100 -26.778313 -7.057157 -0.662640 50.869724 21.283270 -14.405798 -2.546927 -3.947211 9.543863 -1.789681 8.288211 -37.061346 -0.753500 5.544000 -15.467000 -4.124061 -1.123555 -27.483755 3.364520 -1.471167 -8.374157 -0.683548 -2.047041 18.160734 -9.641679 -1.616240 -4.196066 12.144231 -4.063904 15.613807 1.201600 -1.109600 3.873300 16.789511 -2.673870 0.970344 -108.213022 -3.979068 18.127203 15.951233 -16.160043 -2.156997 -0.516054 0.322678 3.305258 20.815100 -11.394528 -4.520600 -7.125000 0.000000 0.000000 -4.064100 17.494500 2.661100 -11.347003 1.302381 0.838583 101.821299 -3.583002 7.759540 -20.425650 30.214072 -5.042437 0.040156 -0.251143 -3.745669 -9.428687 -53.954023 7.642200 7.125000 0.000000 0.000000 70.425100 -74.955500 -55.176400 
16.826835 18.372311 21.021888 179.289782 -2.028463 -151.515883 22.418884 5.375623 -0.653747 -44.078316 -23.622583 -16.741587 2.747329 5.124446 12.694394 -2.158271 -15.065104 -31.095710 0.409500 -4.107700 -11.379900 -26.779102 -7.047657 -0.686165 50.938589 21.251373 -14.261912 -2.545132 -3.946682 9.585625 -1.794869 8.291461 -37.040108 -0.733000 5.469900 -15.253900 -4.048928 -1.114967 -27.432787 3.378375 -1.473511 -8.320318 -0.723435 -2.040730 18.157639 -9.538799 -1.686039 -4.276997 11.911502 -4.110533 15.841371 1.139000 -1.126200 3.926500 16.768472 -2.656928 0.970671 -108.224912 -3.992693 17.706550 15.759623 -15.842978 -2.079437 -0.513180 0.341540 3.613318 20.835421 -11.457054 -4.555600 -7.125000 0.000000 0.000000 -4.052500 17.408100 2.661200 -11.354313 1.326234 0.845411 101.842897 -3.520923 7.531366 -20.294509 30.056951 -4.980204 0.040343 -0.255252 -3.659724 -9.311974 -53.479265 7.501500 7.125000 0.000000 0.000000 68.746600 -74.782600 -53.433300 
16.826426 18.373333 21.021172 179.235476 -1.981142 -151.536122 22.417774 5.373049 -0.645698 -44.145852 -23.663245 -16.681204 2.742141 5.111700 12.657992 -2.135788 -15.020607 -31.099392 0.347300 -3.786500 -10.476600 -26.776358 -7.057457 -0.698854 50.871307 21.193366 -14.298435 -2.555062 -3.966605 9.644042 -1.779996 8.295305 -36.988414 -0.775200 5.621800 -15.690900 -4.118481 -1.123812 -27.423568 3.354664 -1.465172 -8.326918 -0.686909 -2.044905 18.142306 -9.424153 -1.764767 -4.321437 11.714190 -4.184548 16.052483 1.079300 -1.156700 3.970100 16.752778 -2.642920 0.975028 -108.223618 -3.930026 17.519026 15.587625 -15.545838 -2.011957 -0.525382 0.355985 3.793845 21.178746 -11.484610 -4.654400 -7.125000 0.000000 0.000000 -3.804100 17.333800 2.503500 -11.354226 1.345815 0.850538 101.867972 -3.465770 7.288113 -20.147802 29.883480 -4.911790 0.036316 -0.251185 -3.382023 -9.987116 -54.032547 8.103000 7.125000 0.000000 0.000000 70.500800 -75.183600 -55.501500 
16.827244 18.373538 21.022501 179.264668 -2.005688 -151.578369 22.417087 5.377237 -0.645796 -44.112636 -23.638205 -16.666815 2.743871 5.131084 12.711804 -2.093434 -14.924293 -31.123878 0.382800 -3.973400 -11.001900 -26.773824 -7.059446 -0.714049 50.945131 21.131727 -14.217529 -2.547121 -3.936872 9.561349 -1.818479 8.180665 -37.000701 -0.799900 5.708500 -15.940900 -4.136281 -1.143191 -27.366160 3.399394 -1.475957 -8.318152 -0.665079 -2.050095 18.122251 -9.446896 -1.742435 -4.341847 11.770388 -4.158819 16.021020 1.095600 -1.143100 3.969200 16.745345 -2.638923 0.974443 -108.207552 -3.861078 17.452364 15.447588 -15.307744 -1.959999 -0.529750 0.364095 3.820994 21.283300 -11.475806 -4.679800 -7.125000 0.000000 0.000000 -3.727500 17.324800 2.453600 -11.352815 1.339951 0.848043 101.833155 -3.436765 7.112504 -19.999120 29.695848 -4.840976 0.036189 -0.254049 -3.207097 -9.930717 -53.731356 8.026400 7.125000 0.000000 0.000000 69.401800 -75.084100 -54.372100 
16.827755 18.374458 21.020150 179.237629 -2.035425 -151.615155 22.416281 5.384760 -0.650608 -44.171245 -23.549596 -16.622578 2.742963 5.135215 12.719210 -2.035696 -14.774656 -31.100319 0.412400 -4.122300 -11.421100 -26.776533 -7.053865 -0.733996 50.953210 21.076587 -14.065686 -2.548842 -3.874718 9.424196 -1.838594 8.193555 -37.050365 -0.739700 5.494400 -15.324100 -4.216988 -1.188375 -27.380043 3.446129 -1.494893 -8.269984 -0.620625 -2.067158 18.168098 -9.537845 -1.689892 -4.368019 11.827458 -4.078718 15.922911 1.128600 -1.107800 3.960700 16.728074 -2.646049 0.968685 -108.262156 -3.885882 16.936176 15.270779 -15.027619 -1.893938 -0.508390 0.378727 4.229463 20.855553 -11.441490 -4.567500 -7.125000 0.000000 0.000000 -4.038100 17.386500 2.653600 -11.350779 1.333336 0.843939 101.759533 -3.426713 7.124616 -19.918778 29.584242 -4.800843 0.037166 -0.256906 -3.232152 -9.773703 -53.403201 7.866000 7.125000 0.000000 0.000000 68.265200 -74.933100 -53.158700 
16.827346 18.373538 21.016980 179.297897 -2.061864 -151.675675 22.418470 5.392580 -0.663272 -44.147020 -23.454102 -16.539237 2.747215 5.107955 12.650237 -1.997594 -14.675617 -31.073207 0.414600 -4.133400 -11.452200 -26.769857 -7.059718 -0.754190 51.043179 20.998698 -13.959537 -2.548158 -3.862648 9.435957 -1.807536 8.322682 -37.006478 -0.692900 5.321500 -14.827800 -4.159596 -1.177366 -27.318850 3.489342 -1.494897 -8.296497 -0.649516 -2.059639 18.133749 -9.590124 -1.637967 -4.316182 11.816813 -4.009724 15.866177 1.140400 -1.079800 3.940800 16.711331 -2.644394 0.970001 -108.290407 -3.778798 16.468102 15.113929 -14.775934 -1.836211 -0.496411 0.390630 4.587031 20.657199 -11.388580 -4.503300 -7.125000 0.000000 0.000000 -4.181600 17.449800 2.742600 -11.350707 1.328476 0.847312 101.745736 -3.513716 7.106464 -19.872064 29.517046 -4.776897 0.036897 -0.256078 -3.175710 -9.712775 -53.535670 7.830200 7.125000 0.000000 0.000000 68.773400 -74.948200 -53.642100 
16.824892 18.372720 21.016265 179.292800 -1.983231 -151.569116 22.421463 5.386450 -0.655510 -44.144355 -23.556918 -16.622084 2.735479 5.106912 12.595140 -1.918945 -14.502337 -31.145526 0.463400 -4.366400 -12.109800 -26.766774 -7.072296 -0.719071 50.959410 21.073124 -14.212659 -2.553635 -3.937881 9.596343 -1.760409 8.387944 -36.958022 -0.761900 5.574400 -15.554500 -4.124752 -1.116125 -27.456195 3.423623 -1.446816 -8.334666 -0.691273 -2.034540 18.164297 -9.600389 -1.624966 -4.294439 11.885833 -4.013024 15.888594 1.154600 -1.077100 3.941900 16.720975 -2.637760 0.979750 -108.251587 -3.571988 16.461307 15.060227 -14.680518 -1.818684 -0.500352 0.393526 4.542327 20.755723 -11.389792 -4.528700 -7.125000 0.000000 0.000000 -4.110200 17.436200 2.696700 -11.345842 1.321871 0.848427 101.787676 -3.517790 6.954551 -19.776077 29.396407 -4.730131 0.035002 -0.252638 -2.998968 -9.632215 -54.254522 7.835800 7.125000 0.000000 0.000000 71.449500 -75.104300 -56.297500 
16.824790 18.372617 21.018412 179.381008 -2.028142 -151.483487 22.432127 5.371565 -0.656768 -43.978327 -23.687091 -16.736139 2.740535 5.130646 12.648631 -1.965045 -14.602308 -31.164660 0.394300 -4.031800 -11.166100 -26.771730 -7.054334 -0.674108 51.024443 21.269253 -14.355340 -2.531468 -3.991792 9.667816 -1.822744 8.143878 -37.034984 -0.834900 5.829000 -16.289000 -4.033541 -1.087900 -27.515008 3.434708 -1.447407 -8.395807 -0.745646 -2.027677 18.151919 -9.629156 -1.606413 -4.232572 11.978718 -4.024539 15.927092 1.175700 -1.077600 3.938200 16.727242 -2.634819 0.991273 -108.238747 -3.357011 16.439253 15.046972 -14.655786 -1.815466 -0.498450 0.389258 4.449141 20.696310 -11.301162 -4.479700 -7.125000 0.000000 0.000000 -4.150700 17.539000 2.714100 -11.343114 1.312059 0.849878 101.809483 -3.523652 6.846855 -19.682367 29.276510 -4.684646 0.032469 -0.247994 -2.875207 -9.881987 -55.051405 8.118300 7.125000 0.000000 0.000000 74.383000 -75.363900 -59.355600 
16.826221 18.374560 21.021070 179.334214 -2.067221 -151.447325 22.432766 5.368927 -0.659433 -43.995505 -23.712966 -16.806989 2.747181 5.141792 12.708508 -2.127516 -14.961121 -31.076117 0.320900 -3.641000 -10.068800 -26.776764 -7.033844 -0.648730 50.958712 21.421877 -14.406535 -2.525547 -4.022711 9.710700 -1.896364 7.899110 -37.138809 -0.844300 5.861000 -16.381600 -4.106853 -1.166717 -27.505839 3.488726 -1.520117 -8.436755 -0.715681 -2.069748 18.140418 -9.718990 -1.584867 -4.166687 11.991730 -4.001505 15.891672 1.195900 -1.071500 3.921500 16.711604 -2.640038 0.994047 -108.313578 -3.249097 16.050363 14.939932 -14.485225 -1.775872 -0.504833 0.397474 4.716408 20.893651 -11.258542 -4.513000 -7.125000 0.000000 0.000000 -4.005300 17.560600 2.616700 -11.341653 1.303904 0.848954 101.738062 -3.543691 6.936552 -19.636353 29.206270 -4.660544 0.030921 -0.244082 -2.789020 -10.132278 -55.598024 8.379400 7.125000 0.000000 0.000000 76.442400 -75.545500 -61.531000 
